<svg t="1571735009195" class="icon" viewBox="0 0 1024 1024" version="1.1" xmlns="http://www.w3.org/2000/svg" p-id="1031" width="16" height="16"><path d="M678.8 556.5l-145.7-76.6-145.7 76.6 27.8-162.3-117.9-114.9 162.9-23.7L533.1 108 606 255.6l162.9 23.7-117.9 115 27.8 162.2z m-145.7-84.9L669 543l-26-151.4 110-107.2-152-22.1-68-137.7-68 137.7-152 22.1 110 107.2L397 543l136.1-71.4z" p-id="1032"></path><path d="M530.2 642.3L403.6 537.1l-158.5 44.6 61-152.9-91.4-136.9L379 302.6l102-129.3 40.6 159.6 154.5 57-139.2 87.9-6.7 164.5zM405.3 529l118.1 98.2 6.1-153.5 129.9-82-144.1-53.2-37.8-148.8-95.1 120.6-153.3-10L314.4 428l-56.9 142.7L405.3 529z" p-id="1033"></path><path d="M480.9 778.2l-102-129.3-164.3 10.7L306 522.7l-61-152.9 158.5 44.6 126.6-105.2 6.5 164.5 139.2 87.9-154.5 57-40.4 159.6z m-98.6-136.9l95.1 120.6L515.3 613l144.1-53.2-129.9-82-6.1-153.5-118.1 98.2-147.8-41.6 56.9 142.7L229 651.3l153.3-10z" p-id="1034"></path><path d="M533.1 843.5l-72.9-147.6-162.9-23.7 117.9-114.9L387.4 395l145.7 76.6L678.8 395 651 557.2l117.9 114.9L606 695.8l-72.9 147.7zM313.1 667l152 22.1 68 137.7 68-137.7L753 667 643 559.8l26-151.4-135.9 71.5-135.9-71.5 26 151.4L313.1 667z" p-id="1035"></path><path d="M585.3 778.2l-40.6-159.6-154.5-57 139.2-87.9 6.5-164.5 126.6 105.2L821 369.8l-61 152.9 91.4 136.9-164.3-10.7-101.8 129.3zM406.8 559.8L550.9 613l37.8 148.8 95.1-120.6 153.3 10-85.3-127.7 56.9-142.7-147.8 41.6-118.1-98.2-6.1 153.5-129.9 82.1z" p-id="1036"></path><path d="M536 642.3l-6.5-164.5-139.2-87.9 154.5-57 40.6-159.6 102 129.3 164.3-10.7-91.4 136.9 61 152.9-158.5-44.6L536 642.3zM406.8 391.7l129.9 82 6.1 153.5L660.9 529l147.8 41.6-56.9-142.7 85.3-127.7-153.3 10-95.1-120.6-37.8 148.8-144.1 53.3z" p-id="1037"></path><path d="M678.8 556.5l-145.7-76.6-145.7 76.6 27.8-162.3-117.9-114.9 162.9-23.7L533.1 108 606 255.6l162.9 23.7-117.9 115 27.8 162.2z m-145.7-84.9L669 543l-26-151.4 110-107.2-152-22.1-68-137.7-68 137.7-152 22.1 110 107.2L397 543l136.1-71.4z" p-id="1038"></path></svg>
